<?xml version="1.0" encoding="utf-8"?>
<!-- Generator: Adobe Illustrator 18.1.0, SVG Export Plug-In . SVG Version: 6.00 Build 0)  -->
<svg version="1.1" id="Layer_1" xmlns="http://www.w3.org/2000/svg" xmlns:xlink="http://www.w3.org/1999/xlink" x="0px" y="0px"
	 viewBox="0 0 519.9 17.1" enable-background="new 0 0 519.9 17.1" xml:space="preserve">
<g>
	<path fill="#FFFFFF" d="M126.8,1.8h1.4l7.2,8.2c0.2,0.2,1.2,1.4,1.2,1.6l0,0c0-0.2,0-1.6,0-2V1.8h1.7v12.6h-1.4l-7.2-8.2
		c-0.2-0.2-1.2-1.4-1.2-1.6l0,0c0,0.2,0,1.6,0,2v7.8h-1.7V1.8z"/>
	<path fill="#FFFFFF" d="M140.3,8.1c0-3.5,2.6-6.6,6.6-6.6s6.6,3,6.6,6.6s-2.6,6.6-6.6,6.6S140.3,11.7,140.3,8.1z M151.8,8.1
		c0-2.9-2-5-4.8-5c-2.8,0-4.8,2-4.8,5s2.1,5,4.8,5C149.8,13.1,151.8,11.1,151.8,8.1z"/>
	<path fill="#FFFFFF" d="M155.7,1.8h1.4l7.2,8.2c0.2,0.2,1.2,1.4,1.2,1.6l0,0c0-0.2,0-1.6,0-2V1.8h1.7v12.6h-1.4l-7.2-8.2
		c-0.2-0.2-1.2-1.4-1.2-1.6l0,0c0,0.2,0,1.6,0,2v7.8h-1.7V1.8z"/>
	<path fill="#FFFFFF" d="M170,1.8h6.9v1.5h-5.1V7h5v1.5h-5V13h5.2v1.5h-7V1.8z"/>
</g>
<g>
	<path fill="#FFFFFF" d="M444.9,1.8h1.4l7.2,8.2c0.2,0.2,1.2,1.4,1.2,1.6l0,0c0-0.2,0-1.6,0-2V1.8h1.7v12.6H455l-7.2-8.2
		c-0.2-0.2-1.2-1.4-1.2-1.6l0,0c0,0.2,0,1.6,0,2v7.8h-1.7V1.8z"/>
	<path fill="#FFFFFF" d="M458.5,8.1c0-3.5,2.6-6.6,6.6-6.6s6.6,3,6.6,6.6s-2.6,6.6-6.6,6.6S458.5,11.7,458.5,8.1z M469.9,8.1
		c0-2.9-2-5-4.8-5c-2.8,0-4.8,2-4.8,5s2.1,5,4.8,5C467.9,13.1,469.9,11.1,469.9,8.1z"/>
	<path fill="#FFFFFF" d="M477.7,1.8h3.6c4,0,6.7,2.3,6.7,6.3c0,4-2.7,6.3-6.7,6.3h-3.6V1.8z M479.4,12.9h1.7c3,0,5-1.6,5-4.8
		s-2.1-4.8-5-4.8h-1.7V12.9z"/>
	<path fill="#FFFFFF" d="M493.5,1.8h1.6l5.2,12.6h-1.9l-1.3-3.3h-5.6l-1.3,3.3h-1.9C488.3,14.5,492.9,3.4,493.5,1.8z M496.5,9.7
		l-1.2-3.1c-0.2-0.5-1-2.4-1-2.6h0c0,0.2-0.8,2.1-1,2.6l-1.2,3.1H496.5z"/>
	<path fill="#FFFFFF" d="M502.5,3.4h-3.6V1.8h9v1.5h-3.6v11.1h-1.8V3.4z"/>
	<path fill="#FFFFFF" d="M511.7,1.8h1.6l5.2,12.6h-1.9l-1.3-3.3h-5.6l-1.3,3.3h-1.9C506.5,14.5,511.1,3.4,511.7,1.8z M514.7,9.7
		l-1.2-3.1c-0.2-0.5-1-2.4-1-2.6h0c0,0.2-0.8,2.1-1,2.6l-1.2,3.1H514.7z"/>
</g>
<g>
	<path fill="#FFFFFF" d="M219.7,12.2l1.2-1c0.6,1,1.6,2,3.2,2c1.4,0,2.5-0.8,2.5-2.1c0-1.5-1.2-2-2.8-2.6c-1.6-0.6-3.2-1.4-3.2-3.4
		c0-2,1.5-3.4,3.8-3.4c1.8,0,3,0.8,3.7,1.9l-1.2,1c-0.5-0.8-1.3-1.4-2.5-1.4c-1.2,0-2,0.6-2,1.7c0,1.3,1.3,1.7,2.4,2.2
		c1.8,0.7,3.6,1.5,3.6,3.9c0,2.2-1.6,3.8-4.2,3.8C222,14.7,220.5,13.6,219.7,12.2z"/>
	<path fill="#FFFFFF" d="M231.5,1.8h1.6l3.4,8.2c0.1,0.3,0.5,1.4,0.6,1.8h0c0.1-0.4,0.5-1.5,0.6-1.8l3.4-8.2h1.5l1.7,12.6h-1.7
		l-0.9-7.2c0-0.3-0.2-1.8-0.3-2.1h0c0,0.2-0.6,1.6-0.7,1.9l-3.1,7.4h-1.2l-3.1-7.4c-0.1-0.3-0.7-1.7-0.7-1.9h0
		c0,0.3-0.2,1.8-0.3,2.1l-0.9,7.2h-1.7L231.5,1.8z"/>
	<path fill="#FFFFFF" d="M250.3,1.8h1.6l5.2,12.6h-1.9l-1.3-3.3h-5.6l-1.3,3.3h-1.9C245.1,14.5,249.7,3.4,250.3,1.8z M253.3,9.7
		l-1.2-3.1c-0.2-0.5-1-2.4-1-2.6h0c0,0.2-0.8,2.1-1,2.6l-1.2,3.1H253.3z"/>
	<path fill="#FFFFFF" d="M258.4,1.8h1.8v11.1h4.1v1.5h-5.9V1.8z"/>
	<path fill="#FFFFFF" d="M266,1.8h1.8v11.1h4.1v1.5H266V1.8z"/>
	<path fill="#FFFFFF" d="M273.6,1.8h6.9v1.5h-5.1V7h5v1.5h-5V13h5.2v1.5h-7V1.8z"/>
	<path fill="#FFFFFF" d="M282.9,1.8h3.7c2.4,0,4.2,1.2,4.2,3.7c0,2-1.3,3.3-3.2,3.6l3.9,5.3h-2.1l-3.7-5.1h-1v5.1h-1.8V1.8z
		 M286.3,7.9c1.7,0,2.6-0.9,2.6-2.3c0-1.4-0.9-2.3-2.6-2.3h-1.7v4.5H286.3z"/>
</g>
<g>
	<path fill="#FFFFFF" d="M339.3,1.8h1.8v11.1h4.1v1.5h-5.9V1.8z"/>
	<path fill="#FFFFFF" d="M350.7,1.8h1.6l5.2,12.6h-1.9l-1.3-3.3h-5.6l-1.3,3.3h-1.9C345.5,14.5,350.1,3.4,350.7,1.8z M353.7,9.7
		l-1.2-3.1c-0.2-0.5-1-2.4-1-2.6h0c0,0.2-0.8,2.1-1,2.6l-1.2,3.1H353.7z"/>
	<path fill="#FFFFFF" d="M358.8,1.8h3.7c2.4,0,4.2,1.2,4.2,3.7c0,2-1.3,3.3-3.2,3.6l3.9,5.3h-2.1l-3.7-5.1h-1v5.1h-1.8V1.8z
		 M362.3,7.9c1.7,0,2.6-0.9,2.6-2.3c0-1.4-0.9-2.3-2.6-2.3h-1.7v4.5H362.3z"/>
	<path fill="#FFFFFF" d="M368,8.1c0-3.8,2.8-6.6,6.6-6.6c2.8,0,4.6,1.3,5.6,2.9l-1.4,1c-0.8-1.3-2.1-2.3-4.2-2.3c-2.8,0-4.8,2-4.8,5
		s2,5,4.8,5c2.6,0,4.3-1.8,4.5-3.8H375V7.8h6.1v0.3c0,3.6-2.3,6.6-6.4,6.6C370.8,14.7,368,11.9,368,8.1z"/>
	<path fill="#FFFFFF" d="M383.2,1.8h6.9v1.5h-5.1V7h5v1.5h-5V13h5.2v1.5h-7V1.8z"/>
	<path fill="#FFFFFF" d="M392.4,1.8h3.7c2.4,0,4.2,1.2,4.2,3.7c0,2-1.3,3.3-3.2,3.6l3.9,5.3h-2.1l-3.7-5.1h-1v5.1h-1.8V1.8z
		 M395.8,7.9c1.7,0,2.6-0.9,2.6-2.3c0-1.4-0.9-2.3-2.6-2.3h-1.7v4.5H395.8z"/>
</g>
<circle fill="#FF8B00" cx="110.5" cy="8.6" r="8.6"/>
<circle fill="#9DFF03" cx="204.8" cy="8.6" r="8.6"/>
<circle fill="#33B8F2" cx="323.7" cy="8.6" r="8.6"/>
<circle fill="#C8C8C8" cx="429.1" cy="8.6" r="8.6"/>
<g>
	<path fill="#FFFFFF" d="M1.4,2H5c4,0,6.7,2.3,6.7,6.3c0,4-2.7,6.3-6.7,6.3H1.4V2z M3.2,13.1h1.7c3,0,5-1.6,5-4.8
		c0-3.2-2.1-4.8-5-4.8H3.2V13.1z"/>
	<path fill="#FFFFFF" d="M13.8,2h1.8v12.6h-1.8V2z"/>
	<path fill="#FFFFFF" d="M17.1,12.3l1.2-1c0.6,1,1.6,2,3.2,2c1.4,0,2.5-0.8,2.5-2.1c0-1.5-1.2-2-2.8-2.6C19.6,7.9,18,7.1,18,5.1
		c0-2,1.5-3.4,3.8-3.4c1.8,0,3,0.8,3.7,1.9l-1.2,1c-0.5-0.8-1.3-1.4-2.5-1.4c-1.2,0-2,0.6-2,1.7c0,1.3,1.3,1.7,2.4,2.2
		c1.8,0.7,3.6,1.5,3.6,3.9c0,2.2-1.6,3.8-4.2,3.8C19.4,14.9,17.9,13.8,17.1,12.3z"/>
	<path fill="#FFFFFF" d="M27.8,2h3.6c2.6,0,4.3,1.5,4.3,3.9c0,2.4-1.7,3.9-4.3,3.9h-1.9v4.9h-1.8V2z M31.3,8.3c1.7,0,2.6-1,2.6-2.4
		c0-1.4-0.9-2.4-2.6-2.4h-1.7v4.8H31.3z"/>
	<path fill="#FFFFFF" d="M40,2h1.6l5.2,12.6h-1.9l-1.3-3.3H38l-1.3,3.3h-1.9C34.8,14.6,39.4,3.5,40,2z M43,9.8l-1.2-3.1
		c-0.2-0.5-1-2.4-1-2.6h0c0,0.2-0.8,2.1-1,2.6l-1.2,3.1H43z"/>
	<path fill="#FFFFFF" d="M48.2,2h3.7C54.2,2,56,3.2,56,5.7c0,2-1.3,3.3-3.2,3.6l3.9,5.3h-2.1l-3.7-5.1h-1v5.1h-1.8V2z M51.6,8
		c1.7,0,2.6-0.9,2.6-2.3c0-1.4-0.9-2.3-2.6-2.3H50V8H51.6z"/>
	<path fill="#FFFFFF" d="M58.3,2h1.8v12.6h-1.8V2z"/>
	<path fill="#FFFFFF" d="M65.2,3.5h-3.6V2h9v1.5h-3.6v11.1h-1.8V3.5z"/>
	<path fill="#FFFFFF" d="M75.2,9.5L70.9,2h2l2.3,4.2c0.1,0.2,0.9,1.6,0.9,1.8h0c0-0.2,0.8-1.6,0.9-1.8L79.4,2h1.9l-4.3,7.5v5.1h-1.9
		V9.5z"/>
	<path fill="#FFFFFF" d="M80.9,6.8c0-0.6,0.5-1.2,1.2-1.2c0.7,0,1.2,0.5,1.2,1.2c0,0.6-0.5,1.2-1.2,1.2C81.3,7.9,80.9,7.4,80.9,6.8z
		 M80.9,13.6c0-0.6,0.5-1.2,1.2-1.2c0.7,0,1.2,0.5,1.2,1.2c0,0.6-0.5,1.2-1.2,1.2C81.3,14.8,80.9,14.3,80.9,13.6z"/>
</g>
</svg>
